<?xml version="1.0" encoding="UTF-8"?> <svg xmlns="http://www.w3.org/2000/svg" width="901" height="390" viewBox="0 0 901 390" fill="none"><g clip-path="url(#clip0_6_3905)"><path d="M16.0151 385.388C14.839 385.892 13.5542 386.145 12.1613 386.145C9.81011 386.145 7.75604 385.55 5.99827 384.362C4.24049 383.174 2.88887 381.578 1.94228 379.574C0.995778 377.57 0.522949 375.368 0.522949 372.967C0.522949 370.352 0.995778 368.011 1.94228 365.947C2.88878 363.883 4.2094 362.269 5.9049 361.105C7.60039 359.941 9.52917 359.358 11.693 359.358C13.0236 359.358 14.2564 359.563 15.3904 359.97C16.5244 360.379 17.5276 360.894 18.4019 361.518L16.9661 365.442C15.2816 364.074 13.565 363.39 11.8182 363.39C10.4866 363.39 9.24382 363.805 8.08877 364.633C6.93465 365.461 6.01372 366.589 5.32784 368.017C4.64102 369.445 4.29809 371.012 4.29809 372.716C4.29809 374.515 4.61452 376.131 5.25011 377.558C5.88392 378.987 6.78931 380.102 7.9644 380.906C9.13959 381.711 10.4967 382.113 12.0359 382.113C13.1388 382.113 14.1321 381.92 15.0164 381.536C15.8999 381.152 16.6433 380.66 17.2469 380.06L18.776 383.804C18.1102 384.357 17.1894 384.884 16.0151 385.388Z" fill="#0000FE"></path><path d="M26.4828 359.646V385.857H22.832V359.646H26.4828Z" fill="#0000FE"></path><path d="M50.3212 359.646L40.1489 387.081L29.9766 359.646H34.3141L40.3053 376.856L46.0467 359.646H50.3212Z" fill="#0000FE"></path><path d="M57.4662 359.646V385.857H53.8154V359.646H57.4662Z" fill="#0000FE"></path><path d="M66.5767 359.646V381.824H77.7778V385.857H62.9258V359.646H66.5767Z" fill="#0000FE"></path><path d="M106.078 359.646V363.678H94.6582V370.664H104.831V374.696H94.6582V381.825H106.515V385.857H91.0073V359.646L106.078 359.646Z" fill="#0000FE"></path><path d="M130.822 359.646V386.793H130.728L114.347 368.467L114.441 385.857H110.759V358.746H110.946L127.265 377.287L127.203 359.646H130.822Z" fill="#0000FE"></path><path d="M151.119 385.299C149.57 385.862 148.149 386.145 146.86 386.145C144.467 386.145 142.367 385.593 140.557 384.488C138.747 383.385 137.353 381.866 136.376 379.934C135.398 378.003 134.91 375.811 134.91 373.363C134.91 370.411 135.435 367.88 136.485 365.767C137.535 363.655 138.95 362.059 140.729 360.979C142.507 359.899 144.457 359.358 146.579 359.358C147.89 359.358 149.132 359.533 150.308 359.88C151.483 360.229 152.518 360.69 153.412 361.267L152.226 365.154C151.603 364.723 150.776 364.35 149.746 364.039C148.716 363.727 147.816 363.57 147.047 363.57C144.446 363.57 142.398 364.399 140.9 366.055C139.403 367.711 138.654 370.028 138.654 373.004C138.654 374.78 139.001 376.346 139.699 377.702C140.396 379.058 141.373 380.109 142.632 380.852C143.89 381.597 145.331 381.968 146.953 381.968C147.681 381.968 148.378 381.89 149.044 381.734C149.709 381.578 150.271 381.356 150.729 381.068V376.712H146.455V372.679H154.38V383.444C153.755 384.116 152.668 384.734 151.119 385.299Z" fill="#0000FE"></path><path d="M162.774 359.646V385.857H159.123V359.646H162.774Z" fill="#0000FE"></path><path d="M188.296 359.646V386.793H188.203L171.822 368.467L171.915 385.857H168.233V358.746H168.421L184.74 377.287L184.678 359.646H188.296Z" fill="#0000FE"></path><path d="M208.859 359.646V363.678H197.439V370.664H207.611V374.696H197.439V381.825H209.296V385.857H193.788V359.646L208.859 359.646Z" fill="#0000FE"></path><path d="M228.61 359.646V363.678H217.19V370.664H227.362V374.696H217.19V381.825H229.047V385.857H213.539V359.646L228.61 359.646Z" fill="#0000FE"></path><path d="M245.709 385.857L240.592 376.748H236.941V385.857H233.291V359.646H239.687C242.225 359.646 244.258 360.391 245.787 361.879C247.316 363.367 248.08 365.431 248.08 368.071C248.08 369.68 247.784 371.174 247.191 372.554C246.599 373.934 245.667 374.996 244.399 375.74L249.921 385.857L245.709 385.857ZM236.941 372.716H240.186C241.642 372.716 242.698 372.254 243.353 371.329C244.009 370.406 244.336 369.368 244.336 368.215C244.336 367.543 244.211 366.865 243.962 366.18C243.712 365.496 243.285 364.909 242.683 364.416C242.079 363.925 241.288 363.678 240.311 363.678H236.941V372.716Z" fill="#0000FE"></path><path d="M257.067 359.646V385.857H253.417V359.646H257.067Z" fill="#0000FE"></path><path d="M282.59 359.646V386.793H282.497L266.115 368.467L266.209 385.857H262.527V358.746H262.714L279.033 377.287L278.971 359.646H282.59Z" fill="#0000FE"></path><path d="M302.887 385.299C301.338 385.862 299.917 386.145 298.628 386.145C296.235 386.145 294.135 385.593 292.325 384.488C290.515 383.385 289.121 381.866 288.144 379.934C287.166 378.003 286.678 375.811 286.678 373.363C286.678 370.411 287.203 367.88 288.253 365.767C289.303 363.655 290.718 362.059 292.497 360.979C294.275 359.899 296.225 359.358 298.347 359.358C299.658 359.358 300.901 359.533 302.076 359.88C303.251 360.229 304.286 360.69 305.18 361.267L303.994 365.154C303.371 364.723 302.544 364.35 301.514 364.039C300.484 363.727 299.584 363.57 298.815 363.57C296.214 363.57 294.166 364.399 292.668 366.055C291.171 367.711 290.422 370.028 290.422 373.004C290.422 374.78 290.769 376.346 291.467 377.702C292.164 379.058 293.141 380.109 294.4 380.852C295.658 381.597 297.099 381.968 298.721 381.968C299.449 381.968 300.146 381.89 300.812 381.734C301.477 381.578 302.039 381.356 302.497 381.068V376.712H298.223V372.679H306.148V383.444C305.523 384.116 304.436 384.734 302.887 385.299Z" fill="#0000FE"></path><path d="M322.967 355.866V389.961H319.785V355.866H322.967Z" fill="#0000FE"></path><path d="M341.127 359.736V381.914H352.329V385.947H337.477V359.736H341.127Z" fill="#0000FE"></path><path d="M368.023 379.79H359.754L357.571 385.947H353.982L364.029 358.656H364.248L374.295 385.947H370.113L368.023 379.79ZM366.806 376.19L363.967 367.909L361.034 376.19H366.806Z" fill="#0000FE"></path><path d="M397.447 359.736V386.883H397.353L380.972 368.557L381.066 385.947H377.384V358.836H377.571L393.89 377.377L393.828 359.736H397.447Z" fill="#0000FE"></path><path d="M402.938 359.736H409.397C412.247 359.736 414.602 360.385 416.464 361.681C418.326 362.976 419.684 364.645 420.537 366.685C421.389 368.725 421.816 370.897 421.816 373.202C421.816 375.746 421.301 377.985 420.272 379.916C419.242 381.849 417.864 383.337 416.137 384.38C414.41 385.424 412.528 385.947 410.49 385.947H402.938V359.736ZM409.834 381.914C411.456 381.914 412.887 381.567 414.124 380.87C415.362 380.174 416.329 379.148 417.027 377.792C417.723 376.436 418.072 374.809 418.072 372.914C418.072 370.85 417.692 369.127 416.933 367.747C416.174 366.368 415.206 365.353 414.031 364.705C412.856 364.056 411.644 363.733 410.396 363.733H406.589V381.914H409.834Z" fill="#0000FE"></path><path d="M441.816 363.301C440.693 363.301 439.804 363.589 439.149 364.164C438.494 364.741 438.167 365.533 438.167 366.541C438.167 367.525 438.576 368.348 439.398 369.007C440.221 369.668 441.369 370.321 442.846 370.97C443.97 371.426 444.931 371.948 445.732 372.535C446.534 373.124 447.194 373.922 447.714 374.929C448.234 375.938 448.494 377.21 448.494 378.746C448.494 380.139 448.192 381.399 447.589 382.526C446.985 383.655 446.112 384.555 444.968 385.227C443.824 385.899 442.472 386.235 440.912 386.235C439.539 386.235 438.186 385.989 436.856 385.497C435.524 385.005 434.338 384.326 433.298 383.463L434.921 380.186C435.69 380.858 436.601 381.416 437.651 381.861C438.701 382.305 439.674 382.526 440.569 382.526C441.671 382.526 442.638 382.22 443.471 381.608C444.302 380.996 444.718 380.054 444.718 378.782C444.718 377.774 444.37 376.934 443.674 376.262C442.976 375.591 442.004 374.978 440.755 374.425C439.466 373.874 438.395 373.328 437.542 372.788C436.689 372.248 435.955 371.492 435.342 370.52C434.729 369.547 434.421 368.329 434.421 366.865C434.421 364.729 435.051 363.008 436.309 361.699C437.567 360.391 439.227 359.689 441.286 359.593C442.784 359.593 444.099 359.79 445.233 360.186C446.367 360.582 447.422 361.141 448.401 361.861L447.027 365.065C445.072 363.889 443.335 363.301 441.816 363.301Z" fill="#0000FE"></path><path d="M456.451 379.322C456.908 380.186 457.532 380.877 458.323 381.392C459.113 381.909 459.976 382.166 460.913 382.166C461.89 382.166 462.779 381.915 463.58 381.411C464.38 380.906 465.01 380.223 465.468 379.359C465.925 378.494 466.155 377.546 466.155 376.514V359.736H469.743V376.622C469.743 378.494 469.353 380.157 468.573 381.608C467.792 383.06 466.726 384.195 465.374 385.01C464.022 385.827 462.535 386.235 460.913 386.235C459.29 386.235 457.808 385.827 456.466 385.01C455.125 384.195 454.068 383.06 453.299 381.608C452.529 380.157 452.145 378.494 452.145 376.622V359.736H455.764V376.514C455.764 377.522 455.992 378.458 456.451 379.322Z" fill="#0000FE"></path><path d="M487.247 385.947L482.131 376.838H478.48V385.947H474.829V359.736H481.225C483.763 359.736 485.797 360.481 487.325 361.969C488.854 363.457 489.619 365.521 489.619 368.161C489.619 369.77 489.323 371.264 488.73 372.644C488.137 374.024 487.206 375.086 485.937 375.83L491.46 385.947L487.247 385.947ZM478.48 372.806H481.725C483.181 372.806 484.237 372.344 484.892 371.419C485.547 370.496 485.875 369.458 485.875 368.305C485.875 367.633 485.749 366.955 485.501 366.271C485.251 365.586 484.824 364.999 484.221 364.506C483.618 364.015 482.827 363.768 481.85 363.768H478.48V372.806Z" fill="#0000FE"></path><path d="M512.367 359.736L502.194 387.171L492.022 359.736H496.36L502.351 376.946L508.092 359.736H512.367Z" fill="#0000FE"></path><path d="M530.932 359.736V363.768H519.512V370.754H529.685V374.786H519.512V381.915H531.369V385.947H515.861V359.736L530.932 359.736Z" fill="#0000FE"></path><path d="M553.741 359.736L545.222 377.45V385.947H541.604V377.45L533.21 359.736H537.672L543.538 372.661L549.279 359.736H553.741Z" fill="#0000FE"></path><path d="M560.449 359.736V385.947H556.798V359.736H560.449Z" fill="#0000FE"></path><path d="M585.972 359.736V386.883H585.878L569.497 368.557L569.591 385.947H565.909V358.836H566.096L582.415 377.377L582.353 359.736H585.972Z" fill="#0000FE"></path><path d="M606.269 385.389C604.719 385.952 603.299 386.235 602.01 386.235C599.617 386.235 597.517 385.683 595.707 384.579C593.897 383.475 592.503 381.957 591.526 380.024C590.548 378.093 590.06 375.901 590.06 373.453C590.06 370.501 590.584 367.97 591.635 365.857C592.685 363.745 594.1 362.149 595.879 361.069C597.656 359.989 599.607 359.448 601.729 359.448C603.039 359.448 604.282 359.623 605.457 359.97C606.633 360.319 607.668 360.78 608.562 361.357L607.376 365.244C606.752 364.813 605.926 364.441 604.896 364.129C603.866 363.817 602.966 363.66 602.197 363.66C599.596 363.66 597.548 364.489 596.05 366.145C594.553 367.801 593.804 370.118 593.804 373.094C593.804 374.87 594.151 376.436 594.849 377.792C595.546 379.148 596.522 380.199 597.782 380.942C599.04 381.687 600.481 382.058 602.103 382.058C602.831 382.058 603.528 381.98 604.194 381.824C604.859 381.668 605.421 381.446 605.879 381.158V376.802H601.604V372.769H609.53V383.534C608.905 384.206 607.818 384.825 606.269 385.389Z" fill="#0000FE"></path><path d="M626.349 355.866V389.961H623.166V355.866H626.349Z" fill="#0000FE"></path><path d="M644.508 359.88V382.059H655.709V386.091H640.857V359.88H644.508Z" fill="#0000FE"></path><path d="M671.404 379.934H663.135L660.951 386.091H657.363L667.41 358.8H667.628L677.675 386.091H673.494L671.404 379.934ZM670.187 376.334L667.348 368.053L664.415 376.334H670.187Z" fill="#0000FE"></path><path d="M700.828 359.88V387.027H700.735L684.354 368.701L684.447 386.091H680.765V358.98H680.953L697.272 377.522L697.209 359.88H700.828Z" fill="#0000FE"></path><path d="M706.32 359.88H712.778C715.628 359.88 717.984 360.529 719.846 361.825C721.708 363.12 723.065 364.789 723.918 366.829C724.771 368.869 725.198 371.041 725.198 373.346C725.198 375.89 724.683 378.129 723.653 380.06C722.623 381.993 721.245 383.481 719.518 384.524C717.792 385.569 715.91 386.091 713.871 386.091H706.32V359.88ZM713.215 382.059C714.838 382.059 716.268 381.711 717.506 381.014C718.744 380.318 719.71 379.292 720.408 377.936C721.104 376.58 721.453 374.954 721.453 373.058C721.453 370.994 721.073 369.272 720.314 367.892C719.555 366.512 718.587 365.497 717.412 364.849C716.237 364.201 715.025 363.877 713.777 363.877H709.971V382.059H713.215Z" fill="#0000FE"></path><path d="M750.97 362.113C752.426 363.601 753.155 365.665 753.155 368.305C753.155 369.817 752.894 371.228 752.374 372.536C751.854 373.844 751.017 374.911 749.862 375.74C748.708 376.568 747.226 376.982 745.416 376.982H742.14V386.091H738.489V359.88H744.917C747.496 359.88 749.514 360.625 750.97 362.113ZM747.834 372.212C748.447 371.72 748.885 371.12 749.144 370.411C749.405 369.703 749.535 369.025 749.535 368.377C749.535 367.273 749.228 366.253 748.614 365.317C748 364.381 746.965 363.912 745.51 363.912H742.14V372.95H745.416C746.414 372.95 747.22 372.704 747.834 372.212Z" fill="#0000FE"></path><path d="M760.424 359.88V382.059H771.625V386.091H756.773V359.88H760.424Z" fill="#0000FE"></path><path d="M787.321 379.934H779.052L776.868 386.091H773.28L783.327 358.8H783.545L793.592 386.091H789.411L787.321 379.934ZM786.104 376.334L783.265 368.053L780.332 376.334H786.104Z" fill="#0000FE"></path><path d="M816.745 359.88V387.027H816.651L800.27 368.701L800.363 386.091H796.682V358.98H796.869L813.188 377.522L813.126 359.88H816.745Z" fill="#0000FE"></path><path d="M842.299 359.88V387.027H842.206L825.825 368.701L825.918 386.091H822.236V358.98H822.424L838.743 377.522L838.681 359.88H842.299Z" fill="#0000FE"></path><path d="M851.442 359.88V386.091H847.791V359.88H851.442Z" fill="#0000FE"></path><path d="M876.965 359.88V387.027H876.871L860.49 368.701L860.584 386.091H856.902V358.98H857.089L873.408 377.522L873.346 359.88H876.965Z" fill="#0000FE"></path><path d="M897.262 385.533C895.713 386.096 894.292 386.379 893.003 386.379C890.61 386.379 888.51 385.827 886.7 384.723C884.89 383.619 883.496 382.101 882.519 380.168C881.541 378.237 881.053 376.045 881.053 373.597C881.053 370.645 881.578 368.114 882.628 366.001C883.678 363.89 885.093 362.293 886.872 361.213C888.65 360.133 890.6 359.592 892.722 359.592C894.033 359.592 895.276 359.767 896.451 360.114C897.626 360.463 898.661 360.925 899.555 361.501L898.369 365.388C897.746 364.957 896.919 364.585 895.889 364.273C894.859 363.961 893.96 363.804 893.19 363.804C890.59 363.804 888.541 364.633 887.043 366.289C885.546 367.945 884.797 370.262 884.797 373.238C884.797 375.014 885.144 376.58 885.842 377.936C886.539 379.292 887.516 380.343 888.775 381.086C890.033 381.831 891.474 382.202 893.096 382.202C893.824 382.202 894.521 382.124 895.187 381.968C895.852 381.813 896.414 381.59 896.872 381.302V376.946H892.598V372.913H900.523V383.678C899.898 384.35 898.811 384.969 897.262 385.533Z" fill="#0000FE"></path><g opacity="0.25"><path d="M511.715 225.229H505.548C505.548 224.61 505.548 224.024 505.548 223.437C505.548 191.943 505.547 160.449 505.549 128.955C505.55 124.871 508.06 122.318 512.095 122.31C518.73 122.298 525.364 122.296 531.998 122.311C535.787 122.32 538.113 124.517 538.425 128.346C538.478 129.008 538.476 129.675 538.476 130.34C538.479 161.224 538.479 192.109 538.478 222.993C538.478 224.537 537.704 225.308 536.156 225.309C535.013 225.309 533.87 225.309 532.481 225.309V223.264C532.481 210.012 532.461 196.76 532.509 183.508C532.514 182.099 532.217 181.579 530.705 181.603C524.95 181.694 519.192 181.638 513.435 181.644C512.901 181.645 512.368 181.698 511.716 181.732L511.715 225.229ZM511.728 128.569V175.4H532.408V128.569H511.728Z" fill="#0000FE"></path><path d="M427.425 90.8178H421.319C421.319 87.787 421.322 84.8131 421.318 81.8392C421.315 79.6708 421.12 79.4453 418.994 79.4305C415.595 79.4069 412.195 79.4575 408.797 79.4103C407.276 79.3892 406.5 79.9434 406.721 81.5634C406.729 81.6178 406.728 81.6749 406.721 81.7296C405.881 89.0046 407.71 95.5829 411.071 102.043C414.981 109.56 418.253 117.417 421.805 125.124C422.028 125.609 422.281 126.081 422.695 126.909C423.984 124.075 425.146 121.56 426.275 119.029C427.261 116.818 428.842 116.211 431.016 117.208C431.703 117.523 432.393 117.832 433.268 118.229C432.663 119.622 432.116 120.926 431.534 122.213C429.878 125.879 428.164 129.52 426.583 133.219C426.305 133.869 426.312 134.862 426.6 135.508C429.132 141.188 431.758 146.825 434.487 152.761C432.28 152.761 430.289 152.818 428.306 152.709C427.938 152.689 427.487 152.059 427.276 151.612C425.795 148.482 424.366 145.327 422.723 141.748C421.628 144.139 420.685 146.145 419.786 148.171C418.371 151.361 415.907 152.808 412.501 152.777C410.089 152.754 407.677 152.78 405.265 152.769C404.225 152.765 403.162 152.858 402.151 152.675C398.456 152.009 396.082 149.269 396.026 145.364C395.933 138.768 395.897 132.167 396.073 125.574C396.116 123.964 396.804 122.209 397.663 120.815C400.296 116.543 403.132 112.398 405.947 108.245C406.55 107.355 406.623 106.631 406.157 105.661C404.606 102.434 403.049 99.2048 401.678 95.8982C401.106 94.5177 400.751 92.9457 400.723 91.4526C400.647 87.4135 400.588 83.3522 400.923 79.3338C401.225 75.7213 404.079 73.4024 407.64 73.3698C411.752 73.332 415.864 73.3472 419.975 73.3617C424.244 73.3768 427.168 76.0154 427.39 80.3332C427.566 83.7558 427.425 87.1951 427.425 90.8178ZM409.761 113.344C407.14 117.291 404.726 120.903 402.351 124.541C402.132 124.876 402.087 125.377 402.086 125.802C402.071 132.177 402.098 138.553 402.058 144.928C402.05 146.248 402.565 146.671 403.822 146.645C406.726 146.585 409.634 146.589 412.538 146.652C413.597 146.675 414.104 146.215 414.505 145.296C415.607 142.771 416.63 140.193 417.973 137.801C419.324 135.396 419.453 133.231 417.886 130.929C417.368 130.168 417.093 129.238 416.701 128.388C414.446 123.497 412.189 118.607 409.761 113.344Z" fill="#0000FE"></path><path d="M758.326 224.912H752.337V192.811C751.668 192.77 751.147 192.71 750.626 192.71C745.584 192.702 740.542 192.75 735.502 192.676C734.148 192.656 733.728 193.039 733.736 194.435C733.792 203.911 733.765 213.388 733.765 222.865V224.891H727.931V223.149C727.931 198.433 727.961 173.716 727.883 149C727.875 146.587 729.459 144.312 732.437 144.327C739.506 144.364 746.575 144.321 753.644 144.341C756.477 144.35 758.106 145.929 758.309 148.79C758.363 149.563 758.327 150.341 758.327 151.117C758.327 174.892 758.327 198.666 758.326 222.44C758.326 223.205 758.326 223.971 758.326 224.912ZM752.195 186.768V150.509H733.875V186.768H752.195Z" fill="#0000FE"></path><path d="M621.531 296.155C612.606 301.366 603.776 306.521 594.667 311.839C594.667 309.439 594.605 307.357 594.717 305.285C594.741 304.841 595.316 304.295 595.771 304.026C600.961 300.955 606.178 297.93 611.385 294.888C611.85 294.617 612.297 294.316 612.917 293.926C611.02 291.619 608.622 290.396 605.921 289.865C598.194 288.345 591.182 293.261 589.717 301.12C588.41 308.13 593.383 315.439 600.694 316.778C607.196 317.969 612.991 314.681 615.543 308.759C616.079 307.516 616.687 307.139 617.932 307.232C619.342 307.338 620.767 307.256 622.181 307.256C622.259 314.174 613.817 322.208 605.671 323.087C595.287 324.207 585.621 317.274 583.858 307.441C581.948 296.785 587.852 286.888 597.787 284.091C607.584 281.333 617.923 286.521 621.531 296.155Z" fill="#0000FE"></path><path d="M665.269 307.257C665.252 314.292 656.52 322.412 648.596 323.106C636.059 324.205 628.397 315.352 626.909 307.123C624.892 295.967 631.842 286.442 641.19 284.017C651.049 281.46 661.364 286.81 664.589 296.167C655.75 301.328 646.881 306.506 637.762 311.83C637.762 309.456 637.689 307.417 637.814 305.391C637.844 304.896 638.427 304.28 638.914 303.992C644.004 300.972 649.128 298.007 654.241 295.026C654.794 294.703 655.343 294.371 656.099 293.922C652.936 290.648 649.267 289.184 645.053 289.598C638.875 290.205 634.392 294.417 632.986 300.531C631.046 308.964 637.992 317.369 646.601 316.966C652.414 316.694 656.459 313.749 658.798 308.419C659.191 307.522 659.626 307.187 660.577 307.236C662.101 307.313 663.632 307.257 665.269 307.257Z" fill="#0000FE"></path><path d="M117.004 323.135C106.741 323.459 97.2826 314.797 97.2734 303.31C97.2647 292.303 106.11 283.326 116.951 283.312C127.823 283.298 136.572 292.218 136.664 303.255C136.758 314.505 127.393 323.45 117.004 323.135ZM130.579 303.226C130.543 295.498 124.433 289.443 116.711 289.496C109.412 289.545 103.054 296.085 103.352 303.772C103.593 309.981 108.335 317.098 116.999 317.088C125.515 317.079 130.758 310.004 130.579 303.226Z" fill="#0000FE"></path><path d="M179.269 323.09V317.29C179.872 317.26 180.451 317.208 181.03 317.207C186.018 317.2 191.007 317.276 195.991 317.153C197.291 317.121 198.71 316.716 199.837 316.063C201.394 315.161 201.836 313.497 201.558 311.715C201.276 309.911 200.192 308.74 198.527 308.13C194.02 306.477 189.497 304.869 184.995 303.203C181.549 301.929 178.3 298.267 178.817 292.618C179.166 288.796 182.066 285.236 186.081 284.165C187.074 283.9 188.126 283.745 189.152 283.738C194.851 283.697 200.551 283.716 206.251 283.723C206.568 283.724 206.885 283.804 207.292 283.86V289.833H205.457C200.031 289.833 194.606 289.827 189.18 289.836C186.793 289.84 185.044 291.226 184.697 293.352C184.402 295.158 185.583 296.978 187.684 297.752C191.881 299.299 196.103 300.778 200.308 302.301C205.114 304.042 207.992 308.333 207.675 313.252C207.37 317.98 204.02 321.786 199.154 322.929C198.889 322.991 198.62 323.082 198.353 323.083C192.054 323.091 185.756 323.09 179.269 323.09Z" fill="#0000FE"></path><path d="M723.154 283.877V289.833H721.423C715.941 289.833 710.459 289.828 704.977 289.836C702.681 289.839 700.84 291.239 700.523 293.19C700.191 295.24 701.348 297.012 703.632 297.838C707.786 299.342 711.951 300.816 716.114 302.295C721.37 304.162 723.554 308.524 723.482 312.758C723.396 317.823 719.954 321.771 714.95 322.943C714.738 322.992 714.525 323.078 714.312 323.079C707.962 323.086 701.612 323.085 695.153 323.085V317.203C696.367 317.203 697.554 317.203 698.741 317.203C703.181 317.203 707.622 317.232 712.062 317.193C715.497 317.162 717.595 315.15 717.401 312.107C717.27 310.053 716.077 308.781 714.222 308.106C709.915 306.54 705.593 305.011 701.29 303.431C697.068 301.881 694.32 297.927 694.46 293.687C694.609 289.157 697.49 285.383 701.802 284.192C702.844 283.904 703.952 283.747 705.032 283.739C710.678 283.694 716.324 283.714 721.971 283.723C722.341 283.723 722.711 283.817 723.154 283.877Z" fill="#0000FE"></path><path d="M90.7603 323.036C84.0368 323.376 77.4692 323.438 71.4674 320.042C62.3107 314.859 57.2818 307.003 56.787 296.333C56.1672 282.972 65.321 270.807 78.7913 268.173C82.657 267.417 86.7134 267.658 90.7976 267.435V273.697C89.0586 273.697 87.3333 273.701 85.608 273.696C82.3053 273.685 79.0937 274.091 75.9931 275.377C67.5657 278.873 62.1407 287.734 62.888 296.926C63.7196 307.157 70.9132 315.123 80.9531 316.817C82.562 317.088 84.2305 317.022 85.8726 317.06C87.4556 317.098 89.04 317.068 90.7603 317.068V323.036Z" fill="#0000FE"></path><path d="M272.118 276.455V283.872H285.547V289.757H272.228C272.186 290.486 272.13 291.02 272.129 291.554C272.123 298.98 272.121 306.406 272.126 313.832C272.128 316.061 273.193 317.195 275.426 317.224C278.758 317.267 282.092 317.235 285.528 317.235V323.043C281.536 323.043 277.585 323.301 273.681 322.974C269.349 322.61 266.131 318.722 266.107 314.148C266.042 301.845 266.087 289.542 266.092 277.239C266.092 277.023 266.142 276.807 266.185 276.455H272.118Z" fill="#0000FE"></path><path d="M841.882 283.204V289.491C839.96 289.491 838.065 289.49 836.17 289.491C829.394 289.493 823.321 294.736 822.567 301.232C821.711 308.613 826.148 315.193 833.134 316.784C834.454 317.085 835.843 317.129 837.204 317.188C838.722 317.255 840.245 317.203 841.856 317.203V322.813C829.575 324.956 818.57 318.496 816.734 305.894C815.178 295.208 822.717 285.475 832.394 283.886C835.439 283.386 838.571 283.426 841.882 283.204Z" fill="#0000FE"></path><path d="M766.502 268.205H771.847V322.896H766.502V268.205Z" fill="#0000FE"></path><path d="M688.974 283.799C687.886 283.811 686.776 283.935 685.656 284.182C682.697 284.834 680.148 286.152 678.117 287.975V284.068H672.782V306.652C672.778 311.479 672.775 316.307 672.777 321.135C672.777 321.18 672.781 321.227 672.782 321.272V322.884H672.854C672.856 322.929 672.859 322.969 672.861 323.015H678.814C678.814 322.336 678.814 321.743 678.814 321.149C678.814 314.112 678.765 307.075 678.835 300.039C678.877 295.917 680.871 292.845 684.451 290.977C685.968 290.185 687.481 289.793 688.973 289.783L688.974 283.799Z" fill="#0000FE"></path><path d="M538.906 322.885H533.57V284.068H538.906V322.885Z" fill="#0000FE"></path><path d="M731.65 315.963H738.628C737.134 320.401 735.697 324.719 734.201 329.016C734.097 329.313 733.571 329.61 733.219 329.641C732.26 329.727 731.29 329.671 730.107 329.671C730.634 324.989 731.132 320.567 731.65 315.963Z" fill="#0000FE"></path><path d="M292.861 279.075V273.436H298.366V279.075H292.861Z" fill="#0000FE"></path><path d="M538.9 279.121H533.576V273.444H538.9V279.121Z" fill="#0000FE"></path><path d="M853.367 322.897H849.707V317.355H853.367V322.897Z" fill="#0000FE"></path><path d="M144.173 146.813C144.173 149.272 143.599 151.279 142.451 152.833C141.303 154.389 139.808 155.166 137.965 155.166H115.728C113.884 155.166 112.37 154.389 111.185 152.833C110 151.279 109.407 149.272 109.407 146.813V116.939H117.252V145.91H136.328V117.842L111.947 78.5607C110.254 75.8518 109.407 72.8678 109.407 69.6056V45.7519C109.407 43.2946 110 41.2871 111.185 39.7315C112.37 38.1768 113.884 37.3986 115.728 37.3986H137.965C139.808 37.3986 141.303 38.1769 142.451 39.7315C143.599 41.2871 144.173 43.2946 144.173 45.7519V73.143H136.328V46.6545H117.252V71.4877L141.746 110.769C143.363 113.377 144.173 116.312 144.173 119.573V146.813Z" fill="#0000FE"></path><path d="M185.724 66.0051H172.016V155.166H164.143V66.0051H150.321V58.3999H185.724V66.0051Z" fill="#0000FE"></path><path d="M229.498 148.303C229.498 150.323 228.903 151.972 227.714 153.25C226.524 154.527 225.004 155.166 223.154 155.166H198.344C196.493 155.166 194.982 154.527 193.812 153.25C192.641 151.972 192.056 150.323 192.056 148.303V65.2635C192.056 63.2442 192.641 61.5953 193.812 60.3168C194.982 59.0401 196.493 58.3999 198.344 58.3999H223.154C225.004 58.3999 226.524 59.0401 227.714 60.3168C228.903 61.5953 229.498 63.2442 229.498 65.2635V148.303ZM221.624 147.561V66.0051H199.93V147.561H221.624Z" fill="#0000FE"></path><path d="M276.274 148.303C276.274 150.323 275.67 151.972 274.462 153.25C273.253 154.527 271.723 155.166 269.873 155.166H247.046C245.195 155.166 243.684 154.527 242.514 153.25C241.344 151.972 240.758 150.323 240.758 148.303V65.2635C240.758 63.2442 241.344 61.5953 242.514 60.3168C243.684 59.0401 245.195 58.3999 247.046 58.3999H269.873C271.723 58.3999 273.253 59.0401 274.462 60.3168C275.67 61.5953 276.274 63.2442 276.274 65.2635V87.7701H268.344V66.0051H248.632V147.561H268.344V123.756H276.274V148.303Z" fill="#0000FE"></path><path d="M324.127 155.166H315.461L295.012 108.669V155.166H287.139V58.3999H295.012V101.868L313.592 58.3999H322.145V58.9568L302.093 105.021L324.127 155.166Z" fill="#0000FE"></path><path d="M173.807 300.149C173.807 300.119 173.802 300.089 173.802 300.059V300.04H173.801C173.668 291.019 166.504 283.748 157.606 283.759C148.84 283.77 141.678 290.915 141.455 299.761H141.433V323.022H147.442V300.012C147.519 294.498 152.139 289.903 157.427 289.867C163.176 289.828 167.727 294.319 167.789 300.062H167.793V323.022H173.802V300.149L173.807 300.149Z" fill="#0000FE"></path><path d="M246.328 306.631C246.328 306.662 246.323 306.691 246.323 306.721V306.741H246.322C246.189 315.761 239.025 323.033 230.127 323.022C221.361 323.01 214.199 315.865 213.976 307.02H213.954V283.759H219.963V306.768C220.04 312.282 224.66 316.878 229.948 316.913C235.697 316.952 240.248 312.462 240.31 306.718H240.314V283.759H246.323V306.631L246.328 306.631Z" fill="#0000FE"></path><path d="M337.748 300.149C337.748 300.119 337.743 300.089 337.743 300.059V300.04H337.742C337.609 291.019 330.445 283.748 321.547 283.759C312.781 283.77 305.619 290.915 305.395 299.761H305.374V323.022H311.383V300.012C311.46 294.498 316.08 289.903 321.368 289.867C327.117 289.828 331.668 294.319 331.73 300.062H331.734V323.022H337.743V300.149L337.748 300.149Z" fill="#0000FE"></path><path d="M482.508 300.149C482.508 300.119 482.504 300.089 482.503 300.059V300.04H482.502C482.369 291.019 475.205 283.748 466.307 283.759C457.541 283.77 450.379 290.915 450.156 299.761H450.134V323.022H456.143V300.012C456.22 294.498 460.84 289.903 466.128 289.867C471.877 289.828 476.428 294.319 476.49 300.062H476.494V323.022H482.503V300.149L482.508 300.149Z" fill="#0000FE"></path><path d="M578.571 300.149C578.571 300.119 578.566 300.089 578.566 300.059V300.04H578.565C578.432 291.019 571.268 283.748 562.37 283.759C553.604 283.77 546.442 290.915 546.219 299.761H546.197V323.022H552.206V300.012C552.283 294.498 556.903 289.903 562.191 289.867C567.94 289.828 572.491 294.319 572.553 300.062H572.557V323.022H578.566V300.149L578.571 300.149Z" fill="#0000FE"></path><path d="M258.917 268.104H253.277V322.947H258.917V268.104Z" fill="#0000FE"></path><path d="M298.434 283.793H292.793V322.947H298.434V283.793Z" fill="#0000FE"></path><path d="M429.264 275.377C432.365 274.091 435.576 273.685 438.879 273.696C440.604 273.701 442.33 273.697 444.069 273.697V267.435C439.984 267.658 435.928 267.417 432.062 268.173C418.592 270.806 409.438 282.972 410.058 296.333C410.553 307.003 415.582 314.859 424.738 320.042C430.74 323.438 437.308 323.376 444.031 323.036V317.068C442.311 317.068 440.727 317.097 439.144 317.06C437.502 317.022 435.833 317.088 434.224 316.817C424.667 315.205 417.703 307.905 416.336 298.382H441.816V292.742H416.256C417.162 285.145 422.129 278.337 429.264 275.377Z" fill="#0000FE"></path><path d="M811.397 300.149C811.396 300.119 811.392 300.089 811.391 300.059V300.04H811.39C811.257 291.019 804.094 283.748 795.195 283.759C786.429 283.77 779.267 290.915 779.044 299.761H779.022V323.022H785.032V300.012C785.109 294.498 789.729 289.903 795.016 289.867C800.766 289.828 805.316 294.319 805.379 300.062H805.382V323.022H811.391V300.149L811.397 300.149Z" fill="#0000FE"></path><path d="M382.386 303.114C382.19 292.464 373.722 283.889 363.205 283.902C352.65 283.916 344.038 292.655 344.047 303.372C344.056 314.555 353.265 322.989 363.256 322.673V322.663H371.185V316.786H363.247C354.815 316.793 350.2 309.866 349.965 303.822C349.675 296.338 355.865 289.971 362.971 289.922C370.489 289.872 376.438 295.767 376.473 303.29C376.473 303.3 376.472 303.309 376.472 303.319C376.474 309.315 376.475 315.311 376.477 321.307V321.505C375.77 328.173 370.214 333.301 363.641 333.511V333.497H351.251V340.759H363.641V340.739C373.84 340.509 382.112 332.145 382.373 321.803H382.398C382.394 315.574 382.39 309.344 382.386 303.114Z" fill="#0000FE"></path><path d="M527.743 303.114C527.547 292.464 519.079 283.889 508.562 283.902C498.007 283.916 489.395 292.655 489.404 303.372C489.413 314.555 498.622 322.989 508.613 322.673V322.663H516.542V316.786H508.604C500.172 316.793 495.557 309.866 495.322 303.822C495.032 296.338 501.222 289.971 508.328 289.922C515.846 289.872 521.795 295.767 521.83 303.29C521.83 303.3 521.829 303.309 521.829 303.319C521.831 309.315 521.832 315.311 521.834 321.307V321.505C521.127 328.173 515.571 333.301 508.998 333.511V333.497H496.608V340.759H508.998V340.739C519.197 340.509 527.469 332.145 527.729 321.803H527.755C527.751 315.574 527.747 309.344 527.743 303.114Z" fill="#0000FE"></path><path d="M804.125 231.324C803.715 230.659 802.983 230.304 802.093 230.158C801.509 230.063 800.9 230.133 800.303 230.134H396.731C377.514 230.134 358.297 230.134 339.08 230.134C336.142 230.134 335.691 229.659 335.691 226.553C335.691 208.655 335.691 190.757 335.691 172.859C335.691 170.829 335.707 170.163 336.629 169.943H497.521C498.741 169.943 499.73 168.914 499.73 167.646V167.207C499.73 165.938 498.741 164.91 497.521 164.91H336.812C335.697 164.742 335.691 164.138 335.691 161.948C335.691 109.679 335.691 57.4107 335.691 5.14235V2.81885H331.516V161.612C331.516 164.056 331.51 164.725 330.299 164.91H33.7159V169.943H60.4098C210.142 170.363 310.415 170.435 326.033 169.943H330.814C330.991 170.039 331.157 170.155 331.291 170.318C331.67 170.777 331.511 171.659 331.512 173.344C331.52 191.183 331.516 209.022 331.516 226.861C331.516 229.683 331.085 230.134 328.389 230.134C321.697 230.134 84.8664 229.493 36.1332 230.145C35.0203 230.16 34.1327 230.174 33.7002 230.18C33.7009 231.372 33.7016 232.563 33.7023 233.755C33.7023 233.762 33.7002 233.769 33.7002 233.776V253.931C33.7002 253.978 33.7124 254.022 33.7141 254.069C33.7147 255.073 33.7153 256.569 33.7159 257.572H801.448C803.46 257.572 805.09 255.942 805.09 253.931V233.776C805.09 232.827 804.719 231.972 804.125 231.324Z" fill="#0000FE"></path><path d="M575.288 219.223C575.288 220.915 574.861 222.295 574.008 223.364C573.154 224.434 572.042 224.969 570.671 224.969H554.134C552.763 224.969 551.638 224.434 550.756 223.364C549.874 222.295 549.434 220.915 549.434 219.223V198.673H555.268V218.602H569.455V199.294L551.323 172.275C550.064 170.411 549.434 168.359 549.434 166.114V149.705C549.434 148.015 549.874 146.634 550.756 145.564C551.638 144.495 552.763 143.96 554.134 143.96H570.671C572.042 143.96 573.154 144.495 574.008 145.564C574.861 146.634 575.288 148.015 575.288 149.705V168.547H569.455V150.327H555.268V167.408L573.483 194.429C574.686 196.223 575.288 198.242 575.288 200.485V219.223Z" fill="#0000FE"></path><path d="M616.202 219.223C616.202 220.915 615.775 222.295 614.922 223.364C614.068 224.434 612.956 224.969 611.585 224.969H595.048C593.677 224.969 592.552 224.434 591.67 223.364C590.788 222.295 590.348 220.915 590.348 219.223V198.673H596.182V218.602H610.369V199.294L592.237 172.275C590.978 170.411 590.348 168.359 590.348 166.114V149.705C590.348 148.015 590.788 146.634 591.67 145.564C592.552 144.495 593.678 143.96 595.048 143.96H611.585C612.956 143.96 614.068 144.495 614.922 145.564C615.775 146.634 616.202 148.015 616.202 149.705V168.547H610.369V150.327H596.182V167.408L614.397 194.429C615.6 196.223 616.202 198.242 616.202 200.485V219.223Z" fill="#0000FE"></path><path d="M657.332 219.223C657.332 220.915 656.891 222.295 656.01 223.364C655.129 224.434 654.002 224.969 652.631 224.969H634.248C632.876 224.969 631.757 224.434 630.89 223.364C630.023 222.295 629.589 220.915 629.589 219.223V149.705C629.589 148.015 630.023 146.634 630.89 145.564C631.757 144.495 632.876 143.96 634.248 143.96H652.631C654.002 143.96 655.129 144.495 656.01 145.564C656.891 146.634 657.332 148.015 657.332 149.705V219.223ZM651.498 218.602V150.327H635.423V218.602H651.498Z" fill="#0000FE"></path><path d="M695.215 219.223C695.215 220.915 694.767 222.295 693.872 223.364C692.976 224.434 691.843 224.969 690.472 224.969H673.558C672.186 224.969 671.067 224.434 670.2 223.364C669.333 222.295 668.899 220.915 668.899 219.223V149.705C668.899 148.015 669.333 146.634 670.2 145.564C671.067 144.495 672.186 143.96 673.558 143.96H690.472C691.843 143.96 692.976 144.495 693.872 145.564C694.767 146.634 695.215 148.015 695.215 149.705V168.547H689.339V150.327H674.733V218.602H689.339V198.673H695.215V219.223Z" fill="#0000FE"></path><path d="M714.316 224.969H708.482V143.96H714.316V224.969Z" fill="#0000FE"></path><path d="M795.591 150.328H785.435V224.97H779.601V150.328H769.36V143.961H795.591V150.328Z" fill="#0000FE"></path><path d="M829.469 224.97H807.896V143.961H829.218V150.328H813.73V180.557H827.832V187.028H813.73V218.603H829.469V224.97Z" fill="#0000FE"></path><path d="M866.506 219.223C866.506 220.915 866.078 222.295 865.225 223.364C864.371 224.434 863.259 224.969 861.888 224.969H845.352C843.981 224.969 842.855 224.434 841.973 223.364C841.092 222.295 840.651 220.915 840.651 219.223V198.673H846.486V218.602H860.672V199.294L842.54 172.275C841.281 170.411 840.651 168.359 840.651 166.114V149.705C840.651 148.015 841.092 146.634 841.973 145.564C842.855 144.495 843.981 143.96 845.352 143.96H861.888C863.259 143.96 864.371 144.495 865.225 145.564C866.078 146.634 866.506 148.015 866.506 149.705V168.547H860.672V150.327H846.486V167.408L864.7 194.429C865.903 196.223 866.506 198.242 866.506 200.485V219.223Z" fill="#0000FE"></path></g><path d="M509.531 223.044H503.363C503.363 222.425 503.363 221.839 503.363 221.253C503.363 189.758 503.362 158.264 503.365 126.77C503.366 122.687 505.876 120.133 509.911 120.126C516.546 120.114 523.18 120.112 529.814 120.127C533.603 120.135 535.929 122.332 536.241 126.162C536.294 126.823 536.292 127.491 536.292 128.156C536.295 159.04 536.294 189.924 536.294 220.808C536.294 222.352 535.52 223.124 533.972 223.124C532.829 223.125 531.686 223.124 530.297 223.124V221.08C530.297 207.828 530.277 194.576 530.325 181.324C530.33 179.914 530.033 179.395 528.521 179.419C522.766 179.51 517.008 179.454 511.251 179.46C510.717 179.46 510.184 179.513 509.532 179.548L509.531 223.044ZM509.544 126.384V173.216H530.224V126.384H509.544Z" fill="#0000FE"></path><path d="M425.241 88.6332H419.134C419.134 85.6024 419.138 82.6285 419.133 79.6546C419.13 77.4862 418.936 77.2607 416.809 77.2459C413.41 77.2223 410.011 77.2729 406.612 77.2257C405.091 77.2046 404.315 77.7588 404.537 79.3788C404.544 79.4333 404.543 79.4903 404.537 79.545C403.696 86.82 405.525 93.3983 408.886 99.8588C412.797 107.375 416.068 115.232 419.62 122.94C419.844 123.425 420.096 123.896 420.511 124.724C421.8 121.89 422.961 119.375 424.09 116.845C425.077 114.634 426.657 114.027 428.832 115.023C429.519 115.338 430.208 115.648 431.084 116.044C430.479 117.437 429.931 118.741 429.349 120.029C427.693 123.695 425.98 127.336 424.399 131.034C424.12 131.685 424.127 132.677 424.415 133.323C426.947 139.003 429.573 144.64 432.303 150.576C430.096 150.576 428.104 150.634 426.122 150.525C425.754 150.505 425.303 149.874 425.091 149.428C423.61 146.298 422.182 143.143 420.538 139.563C419.443 141.954 418.501 143.96 417.602 145.987C416.186 149.176 413.723 150.624 410.317 150.592C407.905 150.57 405.492 150.595 403.08 150.585C402.041 150.58 400.978 150.673 399.966 150.491C396.271 149.824 393.897 147.084 393.842 143.18C393.748 136.584 393.713 129.982 393.889 123.39C393.932 121.78 394.62 120.024 395.479 118.63C398.111 114.359 400.947 110.214 403.762 106.06C404.365 105.171 404.438 104.446 403.972 103.477C402.422 100.25 400.864 97.0203 399.493 93.7136C398.921 92.3331 398.566 90.7611 398.538 89.268C398.462 85.2289 398.404 81.1676 398.739 77.1493C399.04 73.5367 401.894 71.2178 405.456 71.1852C409.567 71.1475 413.679 71.1626 417.791 71.1772C422.059 71.1922 424.984 73.8309 425.206 78.1486C425.382 81.5712 425.241 85.0106 425.241 88.6332ZM407.576 111.159C404.955 115.106 402.542 118.718 400.167 122.356C399.948 122.692 399.903 123.193 399.902 123.617C399.886 129.993 399.914 136.369 399.873 142.744C399.865 144.063 400.38 144.487 401.638 144.461C404.542 144.401 407.449 144.404 410.353 144.468C411.412 144.491 411.919 144.03 412.32 143.111C413.422 140.587 414.446 138.008 415.789 135.617C417.139 133.212 417.268 131.046 415.701 128.744C415.183 127.983 414.909 127.053 414.517 126.203C412.262 121.313 410.005 116.422 407.576 111.159Z" fill="#0000FE"></path><path d="M756.142 222.727H750.152V190.626C749.484 190.585 748.963 190.526 748.441 190.525C743.4 190.518 738.358 190.565 733.317 190.491C731.964 190.471 731.544 190.855 731.552 192.251C731.608 201.727 731.581 211.204 731.581 220.68V222.706H725.746V220.965C725.746 196.248 725.776 171.532 725.698 146.816C725.691 144.403 727.275 142.127 730.252 142.143C737.321 142.179 744.391 142.137 751.46 142.157C754.292 142.165 755.922 143.744 756.124 146.606C756.179 147.378 756.142 148.157 756.142 148.933C756.142 172.707 756.142 196.482 756.142 220.256C756.142 221.021 756.142 221.786 756.142 222.727ZM750.01 184.584V148.325H731.691V184.584H750.01Z" fill="#0000FE"></path><path d="M619.347 293.97C610.421 299.181 601.591 304.337 592.483 309.655C592.483 307.254 592.421 305.173 592.533 303.1C592.557 302.656 593.132 302.111 593.586 301.842C598.776 298.771 603.993 295.746 609.201 292.704C609.665 292.433 610.112 292.132 610.732 291.741C608.836 289.434 606.438 288.212 603.736 287.68C596.01 286.161 588.998 291.077 587.532 298.935C586.225 305.946 591.198 313.254 598.509 314.593C605.012 315.784 610.806 312.496 613.359 306.575C613.895 305.332 614.502 304.954 615.747 305.048C617.158 305.153 618.582 305.072 619.997 305.072C620.075 311.99 611.632 320.024 603.487 320.903C593.102 322.023 583.437 315.09 581.674 305.256C579.764 294.601 585.667 284.703 595.602 281.906C605.399 279.148 615.739 284.337 619.347 293.97Z" fill="#0000FE"></path><path d="M663.085 305.072C663.068 312.107 654.335 320.227 646.412 320.922C633.875 322.021 626.212 313.167 624.724 304.939C622.707 293.783 629.657 284.258 639.006 281.833C648.865 279.276 659.18 284.626 662.404 293.983C653.565 299.144 644.697 304.321 635.577 309.645C635.577 307.272 635.505 305.233 635.629 303.207C635.66 302.711 636.243 302.096 636.729 301.807C641.82 298.787 646.943 295.823 652.056 292.841C652.61 292.518 653.159 292.187 653.915 291.737C650.751 288.464 647.082 286.999 642.868 287.413C636.691 288.02 632.208 292.233 630.801 298.347C628.861 306.78 635.807 315.184 644.416 314.782C650.23 314.51 654.275 311.565 656.613 306.234C657.007 305.337 657.441 305.003 658.393 305.051C659.917 305.129 661.447 305.072 663.085 305.072Z" fill="#0000FE"></path><path d="M114.819 320.95C104.557 321.275 95.0981 312.612 95.0889 301.125C95.0802 290.118 103.925 281.142 114.767 281.128C125.638 281.114 134.388 290.033 134.479 301.071C134.573 312.32 125.209 321.266 114.819 320.95ZM128.394 301.041C128.358 293.314 122.248 287.259 114.526 287.311C107.228 287.361 100.87 293.901 101.168 301.588C101.408 307.797 106.15 314.913 114.814 314.904C123.331 314.894 128.573 307.819 128.394 301.041Z" fill="#0000FE"></path><path d="M177.084 320.905V315.105C177.687 315.076 178.267 315.023 178.846 315.022C183.833 315.016 188.822 315.091 193.806 314.969C195.106 314.937 196.525 314.532 197.652 313.879C199.21 312.977 199.652 311.312 199.373 309.53C199.092 307.726 198.008 306.556 196.342 305.945C191.835 304.293 187.313 302.684 182.81 301.019C179.365 299.745 176.116 296.082 176.632 290.433C176.981 286.611 179.881 283.052 183.896 281.98C184.889 281.715 185.941 281.56 186.967 281.553C192.667 281.513 198.366 281.531 204.066 281.539C204.384 281.539 204.701 281.62 205.108 281.675V287.648H203.272C197.847 287.648 192.421 287.642 186.996 287.651C184.608 287.655 182.86 289.042 182.513 291.167C182.218 292.973 183.399 294.794 185.499 295.567C189.696 297.114 193.918 298.593 198.124 300.117C202.93 301.858 205.807 306.149 205.49 311.068C205.185 315.796 201.836 319.601 196.969 320.745C196.704 320.807 196.436 320.898 196.169 320.898C189.87 320.907 183.571 320.905 177.084 320.905Z" fill="#0000FE"></path><path d="M720.969 281.692V287.648H719.238C713.756 287.648 708.275 287.643 702.793 287.651C700.496 287.654 698.655 289.054 698.339 291.006C698.006 293.055 699.164 294.828 701.447 295.654C705.602 297.157 709.767 298.631 713.93 300.11C719.186 301.978 721.37 306.339 721.298 310.573C721.211 315.639 717.77 319.586 712.765 320.758C712.553 320.808 712.34 320.894 712.127 320.894C705.777 320.902 699.428 320.9 692.968 320.9V315.019C694.182 315.019 695.369 315.019 696.556 315.019C700.997 315.019 705.437 315.048 709.877 315.008C713.312 314.978 715.411 312.965 715.217 309.922C715.086 307.868 713.892 306.596 712.038 305.922C707.73 304.355 703.409 302.827 699.106 301.247C694.883 299.696 692.135 295.743 692.275 291.503C692.425 286.973 695.306 283.199 699.617 282.007C700.659 281.72 701.768 281.563 702.847 281.554C708.493 281.51 714.14 281.53 719.786 281.538C720.156 281.539 720.526 281.632 720.969 281.692Z" fill="#0000FE"></path><path d="M88.5757 320.851C81.8523 321.191 75.2847 321.254 69.2828 317.857C60.1261 312.675 55.0972 304.818 54.6024 294.149C53.9826 280.787 63.1364 268.622 76.6067 265.988C80.4725 265.233 84.5288 265.473 88.613 265.251V271.512C86.8741 271.512 85.1487 271.516 83.4234 271.511C80.1207 271.501 76.9092 271.907 73.8086 273.193C65.3811 276.688 59.9562 285.549 60.7034 294.741C61.5351 304.973 68.7286 312.939 78.7685 314.632C80.3774 314.904 82.0459 314.837 83.6881 314.876C85.271 314.913 86.8554 314.884 88.5757 314.884V320.851Z" fill="#0000FE"></path><path d="M269.933 274.27V281.687H283.363V287.572H270.043C270.002 288.301 269.945 288.835 269.945 289.369C269.938 296.795 269.937 304.221 269.942 311.648C269.943 313.877 271.008 315.011 273.241 315.04C276.574 315.082 279.907 315.051 283.343 315.051V320.858C279.351 320.858 275.4 321.117 271.497 320.789C267.164 320.425 263.947 316.538 263.923 311.963C263.858 299.661 263.902 287.358 263.907 275.055C263.907 274.838 263.957 274.622 264.001 274.27H269.933Z" fill="#0000FE"></path><path d="M839.697 281.02V287.306C837.775 287.306 835.88 287.306 833.985 287.306C827.209 287.309 821.136 292.551 820.382 299.047C819.526 306.428 823.962 313.009 830.949 314.599C832.269 314.9 833.657 314.944 835.019 315.004C836.537 315.07 838.06 315.019 839.671 315.019V320.628C827.39 322.772 816.385 316.312 814.549 303.709C812.992 293.024 820.532 283.291 830.209 281.701C833.254 281.201 836.386 281.241 839.697 281.02Z" fill="#0000FE"></path><path d="M764.318 266.02H769.663V320.711H764.318V266.02Z" fill="#0000FE"></path><path d="M686.79 281.615C685.702 281.627 684.592 281.751 683.472 281.998C680.513 282.65 677.964 283.967 675.933 285.791V281.884H670.598V304.467C670.594 309.295 670.591 314.123 670.593 318.951C670.593 318.996 670.597 319.043 670.598 319.088V320.7H670.67C670.672 320.745 670.675 320.784 670.677 320.83H676.63C676.63 320.152 676.63 319.558 676.63 318.965C676.63 311.928 676.581 304.891 676.651 297.855C676.693 293.732 678.687 290.66 682.267 288.792C683.784 288.001 685.297 287.609 686.789 287.598L686.79 281.615Z" fill="#0000FE"></path><path d="M536.721 320.7H531.386V281.884H536.721V320.7Z" fill="#0000FE"></path><path d="M729.466 313.779H736.443C734.95 318.217 733.512 322.535 732.016 326.831C731.913 327.129 731.387 327.425 731.034 327.457C730.076 327.543 729.105 327.486 727.922 327.486C728.45 322.804 728.947 318.383 729.466 313.779Z" fill="#0000FE"></path><path d="M290.676 276.891V271.251H296.181V276.891H290.676Z" fill="#0000FE"></path><path d="M536.716 276.937H531.392V271.26H536.716V276.937Z" fill="#0000FE"></path><path d="M851.182 320.712H847.522V315.171H851.182V320.712Z" fill="#0000FE"></path><path d="M141.988 144.629C141.988 147.087 141.414 149.095 140.267 150.649C139.119 152.204 137.623 152.982 135.78 152.982H113.543C111.7 152.982 110.185 152.204 109 150.649C107.815 149.095 107.223 147.087 107.223 144.629V114.754H115.068V143.726H134.143V115.658L109.762 76.3768C108.069 73.6679 107.223 70.6829 107.223 67.4217V43.567C107.223 41.1097 107.815 39.1023 109 37.5467C110.185 35.9929 111.7 35.2147 113.543 35.2147H135.78C137.623 35.2147 139.119 35.993 140.267 37.5467C141.414 39.1023 141.988 41.1097 141.988 43.567V70.9581H134.143V44.4706H115.067V69.3028L139.561 108.584C141.179 111.193 141.988 114.128 141.988 117.388V144.629Z" fill="#0000FE"></path><path d="M183.54 63.8212H169.832V152.982H161.959V63.8212H148.137V56.216H183.54V63.8212Z" fill="#0000FE"></path><path d="M227.313 146.119C227.313 148.138 226.719 149.788 225.529 151.065C224.339 152.343 222.819 152.982 220.969 152.982H196.159C194.308 152.982 192.798 152.343 191.627 151.065C190.457 149.788 189.872 148.138 189.872 146.119V63.0786C189.872 61.0602 190.457 59.4104 191.627 58.1329C192.798 56.8552 194.308 56.216 196.159 56.216H220.969C222.819 56.216 224.339 56.8552 225.529 58.1329C226.719 59.4105 227.313 61.0603 227.313 63.0786V146.119ZM219.44 145.376V63.8212H197.745V145.376H219.44Z" fill="#0000FE"></path><path d="M274.09 146.119C274.09 148.138 273.486 149.788 272.277 151.065C271.068 152.343 269.539 152.982 267.689 152.982H244.862C243.011 152.982 241.5 152.343 240.33 151.065C239.16 149.788 238.574 148.138 238.574 146.119V63.0786C238.574 61.0602 239.16 59.4104 240.33 58.1329C241.5 56.8552 243.011 56.216 244.862 56.216H267.689C269.539 56.216 271.068 56.8552 272.277 58.1329C273.486 59.4105 274.09 61.0603 274.09 63.0786V85.5852H266.16V63.8212H246.448V145.376H266.16V121.571H274.09V146.119Z" fill="#0000FE"></path><path d="M321.943 152.982H313.276L292.828 106.485V152.982H284.954V56.216H292.828V99.6836L311.407 56.216H319.96V56.7721L299.908 102.837L321.943 152.982Z" fill="#0000FE"></path><path d="M171.623 297.965C171.622 297.934 171.618 297.905 171.617 297.874V297.855H171.616C171.483 288.835 164.32 281.563 155.421 281.574C146.655 281.585 139.493 288.731 139.27 297.576H139.249V320.837H145.258V297.828C145.335 292.313 149.955 287.718 155.242 287.682C160.992 287.643 165.542 292.134 165.605 297.878H165.608V320.837H171.618V297.965L171.623 297.965Z" fill="#0000FE"></path><path d="M244.144 304.447C244.143 304.477 244.139 304.507 244.138 304.537V304.556H244.137C244.004 313.577 236.841 320.848 227.942 320.837C219.176 320.826 212.014 313.681 211.791 304.835H211.77V281.574H217.779V304.584C217.856 310.098 222.476 314.693 227.763 314.729C233.513 314.768 238.063 310.277 238.126 304.534H238.129V281.574H244.138V304.447L244.144 304.447Z" fill="#0000FE"></path><path d="M335.563 297.965C335.563 297.934 335.559 297.905 335.558 297.874V297.855H335.557C335.424 288.835 328.261 281.563 319.362 281.574C310.596 281.585 303.434 288.731 303.211 297.576H303.189V320.837H309.199V297.828C309.276 292.313 313.895 287.718 319.183 287.682C324.932 287.643 329.483 292.134 329.546 297.878H329.549V320.837H335.558V297.965L335.563 297.965Z" fill="#0000FE"></path><path d="M480.324 297.965C480.324 297.934 480.319 297.905 480.319 297.874V297.855H480.317C480.184 288.835 473.021 281.563 464.122 281.574C455.356 281.585 448.194 288.731 447.971 297.576H447.95V320.837H453.959V297.828C454.036 292.313 458.656 287.718 463.944 287.682C469.693 287.643 474.243 292.134 474.306 297.878H474.31V320.837H480.319V297.965L480.324 297.965Z" fill="#0000FE"></path><path d="M576.387 297.965C576.387 297.934 576.382 297.905 576.382 297.874V297.855H576.38C576.247 288.835 569.084 281.563 560.185 281.574C551.419 281.585 544.257 288.731 544.034 297.576H544.013V320.837H550.022V297.828C550.099 292.313 554.719 287.718 560.007 287.682C565.756 287.643 570.306 292.134 570.369 297.878H570.373V320.837H576.382V297.965L576.387 297.965Z" fill="#0000FE"></path><path d="M256.732 265.919H251.092V320.762H256.732V265.919Z" fill="#0000FE"></path><path d="M296.249 281.609H290.609V320.762H296.249V281.609Z" fill="#0000FE"></path><path d="M427.08 273.193C430.18 271.907 433.392 271.501 436.694 271.511C438.42 271.516 440.145 271.512 441.884 271.512V265.251C437.8 265.473 433.744 265.233 429.878 265.988C416.408 268.622 407.254 280.787 407.873 294.149C408.368 304.818 413.397 312.675 422.554 317.857C428.556 321.254 435.123 321.191 441.847 320.851V314.884C440.127 314.884 438.542 314.913 436.959 314.876C435.317 314.837 433.648 314.904 432.04 314.632C422.483 313.02 415.518 305.72 414.151 296.197H439.631V290.557H414.071C414.978 282.961 419.944 276.152 427.08 273.193Z" fill="#0000FE"></path><path d="M809.212 297.965C809.212 297.934 809.207 297.905 809.207 297.874V297.855H809.206C809.072 288.835 801.909 281.563 793.011 281.574C784.245 281.585 777.082 288.731 776.859 297.576H776.838V320.837H782.847V297.828C782.924 292.313 787.544 287.718 792.832 287.682C798.581 287.643 803.132 292.134 803.194 297.878H803.198V320.837H809.207V297.965L809.212 297.965Z" fill="#0000FE"></path><path d="M380.201 300.93C380.005 290.279 371.537 281.704 361.021 281.718C350.466 281.731 341.854 290.471 341.862 301.187C341.871 312.371 351.08 320.805 361.072 320.489V320.478H369.001V314.602H361.062C352.63 314.609 348.015 307.682 347.781 301.637C347.49 294.154 353.681 287.786 360.787 287.738C368.305 287.687 374.253 293.582 374.288 301.105C374.288 301.115 374.287 301.125 374.288 301.134C374.289 307.13 374.291 313.127 374.292 319.123V319.321C373.586 325.989 368.029 331.116 361.457 331.327V331.312H349.066V338.575H361.457V338.554C371.656 338.324 379.927 329.96 380.188 319.619H380.213C380.209 313.389 380.205 307.159 380.201 300.93Z" fill="#0000FE"></path><path d="M525.558 300.93C525.362 290.279 516.893 281.704 506.377 281.718C495.822 281.731 487.21 290.471 487.219 301.187C487.228 312.371 496.437 320.805 506.428 320.489V320.478H514.357V314.602H506.419C497.987 314.609 493.371 307.682 493.137 301.637C492.847 294.154 499.037 287.786 506.143 287.738C513.661 287.687 519.61 293.582 519.645 301.105C519.645 301.115 519.644 301.125 519.644 301.134C519.646 307.13 519.647 313.127 519.649 319.123V319.321C518.942 325.989 513.386 331.116 506.813 331.327V331.312H494.423V338.575H506.813V338.554C517.012 338.324 525.284 329.96 525.544 319.619H525.57C525.566 313.389 525.562 307.159 525.558 300.93Z" fill="#0000FE"></path><path d="M801.94 229.139C801.531 228.474 800.799 228.12 799.908 227.974C799.325 227.878 798.716 227.948 798.118 227.95H394.547C375.33 227.95 356.113 227.95 336.896 227.95C333.958 227.95 333.507 227.475 333.507 224.368C333.506 206.471 333.506 188.573 333.507 170.675C333.507 168.644 333.523 167.978 334.445 167.759H495.337C496.557 167.759 497.546 166.73 497.546 165.461V165.023C497.546 163.754 496.557 162.725 495.337 162.725H334.628C333.513 162.558 333.506 161.954 333.506 159.763C333.506 107.495 333.506 55.2263 333.506 2.95785V0.634445H329.332V159.427C329.332 161.871 329.325 162.54 328.115 162.725H31.5314V167.759H58.2252C207.957 168.178 308.231 168.25 323.848 167.759H328.629C328.807 167.855 328.973 167.971 329.107 168.133C329.486 168.593 329.326 169.475 329.327 171.159C329.336 188.999 329.332 206.838 329.331 224.677C329.331 227.499 328.901 227.95 326.205 227.95C319.513 227.95 82.6818 227.309 33.9486 227.961C32.8357 227.976 31.9481 227.989 31.5156 227.996C31.5164 229.187 31.517 230.379 31.5177 231.571C31.5177 231.578 31.5156 231.584 31.5156 231.591V251.746C31.5156 251.794 31.5278 251.838 31.5296 251.885C31.5301 252.889 31.5307 254.384 31.5314 255.388H799.264C801.275 255.388 802.905 253.758 802.905 251.746V231.591C802.905 230.643 802.534 229.787 801.94 229.139Z" fill="#0000FE"></path><path d="M573.104 217.039C573.104 218.731 572.677 220.111 571.823 221.18C570.969 222.25 569.857 222.785 568.486 222.785H551.95C550.579 222.785 549.453 222.25 548.571 221.18C547.69 220.111 547.249 218.731 547.249 217.039V196.489H553.084V216.418H567.27V197.11L549.139 170.091C547.879 168.227 547.249 166.174 547.249 163.93V147.521C547.249 145.831 547.69 144.45 548.571 143.38C549.453 142.311 550.579 141.776 551.95 141.776H568.486C569.857 141.776 570.969 142.311 571.823 143.38C572.677 144.45 573.104 145.831 573.104 147.521V166.363H567.27V148.143H553.084V165.224L571.299 192.245C572.501 194.039 573.104 196.058 573.104 198.301V217.039Z" fill="#0000FE"></path><path d="M614.018 217.039C614.018 218.731 613.591 220.111 612.737 221.18C611.883 222.25 610.771 222.785 609.4 222.785H592.864C591.493 222.785 590.367 222.25 589.485 221.18C588.604 220.111 588.163 218.731 588.163 217.039V196.489H593.998V216.418H608.184V197.11L590.053 170.091C588.793 168.227 588.163 166.174 588.163 163.93V147.521C588.163 145.831 588.604 144.45 589.485 143.38C590.367 142.311 591.493 141.776 592.864 141.776H609.4C610.771 141.776 611.883 142.311 612.737 143.38C613.591 144.45 614.018 145.831 614.018 147.521V166.363H608.184V148.143H593.998V165.224L612.213 192.245C613.415 194.039 614.018 196.058 614.018 198.301V217.039Z" fill="#0000FE"></path><path d="M655.148 217.039C655.148 218.731 654.707 220.111 653.827 221.18C652.945 222.25 651.818 222.785 650.447 222.785H632.064C630.693 222.785 629.573 222.25 628.706 221.18C627.839 220.111 627.406 218.731 627.406 217.039V147.521C627.406 145.831 627.839 144.45 628.706 143.38C629.573 142.311 630.693 141.776 632.064 141.776H650.447C651.818 141.776 652.945 142.311 653.827 143.38C654.707 144.45 655.148 145.831 655.148 147.521V217.039ZM649.314 216.418V148.143H633.24V216.418H649.314Z" fill="#0000FE"></path><path d="M693.032 217.039C693.032 218.731 692.583 220.111 691.688 221.18C690.793 222.25 689.66 222.785 688.289 222.785H671.374C670.003 222.785 668.883 222.25 668.016 221.18C667.149 220.111 666.716 218.731 666.716 217.039V147.521C666.716 145.831 667.149 144.45 668.016 143.38C668.883 142.311 670.003 141.776 671.374 141.776H688.289C689.66 141.776 690.793 142.311 691.688 143.38C692.583 144.45 693.032 145.831 693.032 147.521V166.363H687.156V148.143H672.55V216.418H687.156V196.489H693.032V217.039Z" fill="#0000FE"></path><path d="M712.132 222.785H706.298V141.776H712.132V222.785Z" fill="#0000FE"></path><path d="M793.407 148.143H783.25V222.785H777.416V148.143H767.175V141.776H793.407V148.143Z" fill="#0000FE"></path><path d="M827.285 222.785H805.712V141.776H827.033V148.143H811.546V178.373H825.648V184.843H811.546V216.418H827.285V222.785Z" fill="#0000FE"></path><path d="M864.321 217.039C864.321 218.731 863.893 220.111 863.04 221.18C862.186 222.25 861.074 222.785 859.703 222.785H843.167C841.796 222.785 840.67 222.25 839.788 221.18C838.907 220.111 838.466 218.731 838.466 217.039V196.489H844.301V216.418H858.487V197.11L840.355 170.091C839.096 168.227 838.466 166.174 838.466 163.93V147.521C838.466 145.831 838.907 144.45 839.788 143.38C840.67 142.311 841.796 141.776 843.167 141.776H859.703C861.074 141.776 862.186 142.311 863.04 143.38C863.893 144.45 864.321 145.831 864.321 147.521V166.363H858.487V148.143H844.301V165.224L862.515 192.245C863.718 194.039 864.321 196.058 864.321 198.301V217.039Z" fill="#0000FE"></path></g><defs><clipPath id="clip0_6_3905"><rect width="900" height="389.327" fill="white" transform="translate(0.522949 0.63446)"></rect></clipPath></defs></svg> 